<?xml version="1.0" encoding="utf-8"?>
<svg viewBox="145.133 213.078 80 80" xmlns="http://www.w3.org/2000/svg">
  <path d="M 185.133 213.078 C 163.031 213.078 145.133 230.976 145.133 253.078 C 145.133 275.18 163.031 293.078 185.133 293.078 C 207.235 293.078 225.133 275.18 225.133 253.078 C 225.133 230.976 207.235 213.078 185.133 213.078 Z M 180.434 264.879 C 180.434 268.578 177.434 271.578 173.735 271.578 C 170.035 271.578 167.035 268.578 167.035 264.879 L 167.032 241.277 C 167.032 237.578 170.032 234.578 173.731 234.578 C 175.629 234.578 177.231 235.379 178.43 236.578 C 179.629 237.777 180.43 239.476 180.43 241.277 L 180.434 264.879 Z M 203.235 264.879 C 203.235 268.578 200.235 271.578 196.536 271.578 C 192.836 271.578 189.836 268.578 189.836 264.879 L 189.833 241.277 C 189.833 237.578 192.833 234.578 196.532 234.578 C 198.43 234.578 200.032 235.379 201.231 236.578 C 202.43 237.777 203.129 239.476 203.129 241.277 L 203.133 264.879 L 203.235 264.879 Z" transform="matrix(0.9999999999999999, 0, 0, 0.9999999999999999, -7.105427357601002e-15, 0)"/>
</svg>