<?xml version="1.0" encoding="utf-8"?>
<svg viewBox="198.987 238.828 91 91" xmlns="http://www.w3.org/2000/svg">
  <path d="M 244.487 238.828 C 219.287 238.828 198.987 259.128 198.987 284.328 C 198.987 309.528 219.287 329.828 244.487 329.828 C 269.687 329.828 289.987 309.528 289.987 284.328 C 289.987 259.128 269.687 238.828 244.487 238.828 Z M 265.287 287.628 L 234.987 305.328 C 234.387 305.728 233.687 305.828 233.087 305.828 C 232.487 305.828 231.787 305.728 231.187 305.328 C 230.087 304.728 229.287 303.428 229.287 302.028 L 229.287 266.628 C 229.287 265.228 230.087 263.928 231.187 263.328 C 232.287 262.728 233.887 262.728 234.987 263.328 L 265.387 281.028 C 266.487 281.628 267.187 282.928 267.187 284.328 C 267.187 285.728 266.387 287.028 265.287 287.628 Z" transform="matrix(0.9999999999999999, 0, 0, 0.9999999999999999, -7.105427357601002e-15, 0)"/>
</svg>